<?xml version="1.0" encoding="UTF-8"?><svg xmlns="http://www.w3.org/2000/svg" xmlns:xlink="http://www.w3.org/1999/xlink" contentScriptType="text/ecmascript" width="937.5" zoomAndPan="magnify" contentStyleType="text/css" viewBox="0 0 937.5 48.75" height="48.75" preserveAspectRatio="xMidYMid meet" version="1.0"><defs><clipPath id="clip-0"><path d="M 2.144531 18 L 450 18 L 450 36 L 2.144531 36 Z M 2.144531 18 " clip-rule="nonzero"/></clipPath><clipPath id="clip-1"><path d="M 487 18 L 934.859375 18 L 934.859375 36 L 487 36 Z M 487 18 " clip-rule="nonzero"/></clipPath></defs><path fill="rgb(90.19928%, 92.158508%, 93.728638%)" d="M 466.113281 20.191406 C 465.609375 19.328125 464.847656 18.652344 463.839844 18.160156 C 462.828125 17.671875 461.589844 17.425781 460.125 17.425781 L 452.882812 17.425781 L 452.882812 30.617188 C 452.882812 31.613281 453.089844 32.457031 453.503906 33.148438 C 453.910156 33.839844 454.472656 34.359375 455.199219 34.703125 C 455.507812 34.855469 455.832031 34.96875 456.164062 35.050781 C 456.554688 35.144531 456.953125 35.199219 457.355469 35.214844 L 457.355469 28.832031 L 460.125 28.832031 C 461.003906 28.832031 461.800781 28.742188 462.511719 28.5625 C 462.992188 28.445312 463.453125 28.273438 463.890625 28.046875 C 464.902344 27.523438 465.652344 26.835938 466.140625 25.980469 C 466.628906 25.128906 466.871094 24.1875 466.871094 23.15625 C 466.871094 22.039062 466.617188 21.050781 466.113281 20.191406 Z M 462.226562 25.476562 L 460.054688 25.476562 L 460.054688 24.402344 L 459.121094 25.308594 L 458.886719 25.535156 L 457.351562 24.046875 L 458.523438 22.914062 L 457.417969 22.914062 L 457.417969 20.8125 L 462.226562 20.8125 Z M 462.226562 25.476562 " fill-opacity="1" fill-rule="nonzero"/><path fill="rgb(90.19928%, 92.158508%, 93.728638%)" d="M 478.839844 30.40625 C 478.285156 30.972656 477.492188 31.257812 476.457031 31.257812 C 476.285156 31.257812 476.109375 31.25 475.9375 31.230469 C 475.246094 31.160156 474.6875 30.9375 474.261719 30.5625 C 474.207031 30.511719 474.152344 30.460938 474.101562 30.40625 C 473.566406 29.835938 473.296875 29.023438 473.296875 27.96875 L 473.296875 17.421875 L 468.867188 17.421875 L 468.867188 27.945312 C 468.867188 28.101562 468.871094 28.253906 468.878906 28.40625 C 468.9375 29.78125 469.261719 30.960938 469.851562 31.949219 C 470.492188 33.042969 471.386719 33.863281 472.53125 34.410156 C 473.070312 34.664062 473.625 34.859375 474.207031 34.988281 C 474.769531 34.855469 475.316406 34.664062 475.84375 34.417969 C 477.011719 33.871094 477.941406 33.050781 478.625 31.957031 C 479.265625 30.953125 479.605469 29.742188 479.65625 28.324219 C 479.601562 29.207031 479.328125 29.902344 478.839844 30.40625 Z M 478.839844 30.40625 " fill-opacity="1" fill-rule="nonzero"/><path fill="rgb(83.918762%, 96.469116%, 81.568909%)" d="M 485.882812 19.402344 L 484.097656 18.800781 L 484.097656 27.945312 C 484.097656 29.515625 483.75 30.847656 483.058594 31.9375 C 482.375 33.03125 481.445312 33.851562 480.277344 34.394531 C 479.109375 34.949219 477.8125 35.226562 476.378906 35.222656 C 476.230469 35.222656 476.082031 35.222656 475.9375 35.214844 C 475.351562 35.195312 474.777344 35.117188 474.207031 34.988281 C 474.769531 34.855469 475.316406 34.664062 475.84375 34.417969 C 477.011719 33.871094 477.941406 33.050781 478.625 31.957031 C 479.265625 30.953125 479.605469 29.742188 479.65625 28.324219 C 479.664062 28.207031 479.667969 28.089844 479.667969 27.96875 L 479.667969 18.804688 L 477.898438 19.402344 L 481.890625 13.621094 Z M 485.882812 19.402344 " fill-opacity="1" fill-rule="nonzero"/><path fill="rgb(100%, 100%, 100%)" d="M 457.355469 24.046875 L 457.355469 24.050781 L 457.351562 24.046875 Z M 457.355469 24.046875 " fill-opacity="1" fill-rule="nonzero"/><g clip-path="url(#clip-0)"><path stroke-linecap="butt" transform="matrix(1.491981, -0.000236632, 0.000236816, 1.493143, 6.995567, 26.876572)" fill="none" stroke-linejoin="miter" d="M 0.000353141 -0.00105278 L 291.229102 0.00062672 " stroke="rgb(90.19928%, 92.158508%, 93.728638%)" stroke-width="1" stroke-opacity="1" stroke-miterlimit="4"/></g><g clip-path="url(#clip-1)"><path stroke-linecap="butt" transform="matrix(1.491981, -0.000236632, 0.000236816, 1.493143, 495.657528, 26.876572)" fill="none" stroke-linejoin="miter" d="M -0.000856566 -0.00105298 L 291.227892 0.000626528 " stroke="rgb(90.19928%, 92.158508%, 93.728638%)" stroke-width="1" stroke-opacity="1" stroke-miterlimit="4"/></g></svg>